<svg width="160" height="34" fill="none" xmlns="http://www.w3.org/2000/svg"><g filter="url(#filter0_d)"><path d="M12.294 6.592h3.302l2.08 6.11 2.08-6.11h3.328l-3.146 8.398 2.34 5.902L27.504 6.54h3.9L23.89 25h-3.016l-3.198-7.748L14.478 25h-3.016L4 6.54h3.848L13.1 20.892l2.288-5.902-3.094-8.398zM38.379 25.26c-1.092 0-2.08-.182-2.964-.546a6.96 6.96 0 01-2.262-1.534 6.926 6.926 0 01-1.456-2.236 7.343 7.343 0 01-.494-2.678c0-.97.165-1.88.494-2.73.33-.867.806-1.62 1.43-2.262a6.763 6.763 0 012.262-1.56c.902-.381 1.907-.572 3.016-.572 1.11 0 2.098.19 2.964.572.884.381 1.63.893 2.236 1.534a6.27 6.27 0 011.404 2.236c.33.85.494 1.733.494 2.652 0 .225-.008.442-.026.65 0 .208-.017.381-.052.52h-10.53c.052.537.182 1.014.39 1.43a3.51 3.51 0 001.924 1.742c.416.156.85.234 1.3.234.694 0 1.344-.165 1.95-.494.624-.347 1.049-.797 1.274-1.352l2.99.832c-.502 1.04-1.308 1.898-2.418 2.574-1.092.659-2.4.988-3.926.988zm3.536-8.216c-.086-1.023-.468-1.837-1.144-2.444-.658-.624-1.464-.936-2.418-.936-.468 0-.91.087-1.326.26a3.278 3.278 0 00-1.066.676c-.312.295-.572.65-.78 1.066-.19.416-.303.875-.338 1.378h7.072zm14.239 8.216c-1.04 0-1.968-.234-2.782-.702a5.125 5.125 0 01-1.924-1.924V25h-3.042V6.02h3.484v7.748c.485-.832 1.118-1.473 1.898-1.924.797-.468 1.724-.702 2.782-.702.884 0 1.69.19 2.418.572a5.927 5.927 0 011.872 1.534 6.621 6.621 0 011.222 2.262c.294.867.442 1.777.442 2.73 0 .988-.165 1.907-.494 2.756a6.892 6.892 0 01-1.326 2.236 6.384 6.384 0 01-2.028 1.482 5.89 5.89 0 01-2.522.546zm-.962-2.964c.554 0 1.066-.104 1.534-.312.468-.225.866-.52 1.196-.884.33-.364.58-.789.754-1.274.19-.485.286-1.005.286-1.56 0-.555-.087-1.083-.26-1.586a4.003 4.003 0 00-.754-1.326 3.543 3.543 0 00-1.118-.91 3.053 3.053 0 00-1.43-.338c-.78 0-1.482.26-2.106.78a5.035 5.035 0 00-1.404 1.872v3.25c.121.347.294.659.52.936.242.277.511.52.806.728.294.19.615.347.962.468a3.52 3.52 0 001.014.156z" fill="#2196F3"/><path d="M84.026 11.376c-.121-.121-.346-.286-.676-.494a6.64 6.64 0 00-1.17-.598 8.75 8.75 0 00-1.482-.52 6.53 6.53 0 00-1.638-.208c-.988 0-1.724.182-2.21.546-.485.364-.728.875-.728 1.534 0 .381.087.702.26.962.191.243.46.46.806.65.347.19.78.364 1.3.52.538.156 1.153.32 1.846.494.902.243 1.716.503 2.444.78.746.277 1.37.624 1.872 1.04.52.416.919.919 1.196 1.508.278.572.416 1.283.416 2.132 0 .988-.19 1.837-.572 2.548a4.571 4.571 0 01-1.508 1.69c-.624.433-1.352.754-2.184.962-.814.19-1.672.286-2.574.286-1.386 0-2.756-.208-4.108-.624a12.682 12.682 0 01-3.64-1.768l1.586-3.094c.156.156.434.364.832.624.416.243.902.494 1.456.754.555.243 1.17.45 1.846.624.676.173 1.37.26 2.08.26 1.976 0 2.964-.633 2.964-1.898 0-.399-.112-.737-.338-1.014-.225-.277-.546-.52-.962-.728a9.207 9.207 0 00-1.508-.572c-.589-.173-1.248-.364-1.976-.572a18.915 18.915 0 01-2.314-.78c-.641-.295-1.178-.633-1.612-1.014a4.117 4.117 0 01-.988-1.352c-.208-.52-.312-1.135-.312-1.846 0-.936.174-1.768.52-2.496a5.104 5.104 0 011.43-1.82A6.498 6.498 0 0176.538 6.8a8.59 8.59 0 012.626-.39c1.3 0 2.496.208 3.588.624 1.092.399 2.046.875 2.86 1.43l-1.586 2.912zm13.401 12.922c-.468.208-1.04.416-1.716.624a7.209 7.209 0 01-2.132.312 5.09 5.09 0 01-1.378-.182 3.257 3.257 0 01-1.118-.572 3.094 3.094 0 01-.754-1.04c-.19-.433-.286-.953-.286-1.56v-7.826H88.25v-2.678h1.794v-4.42h3.484v4.42h2.86v2.678h-2.86v6.656c0 .485.122.832.364 1.04.26.19.572.286.936.286.364 0 .72-.06 1.066-.182.347-.121.624-.225.832-.312l.702 2.756zm6.755.962c-1.404 0-2.47-.45-3.198-1.352-.728-.901-1.092-2.236-1.092-4.004v-8.528h3.484v7.774c0 2.097.754 3.146 2.262 3.146.676 0 1.326-.2 1.95-.598.641-.416 1.161-1.04 1.56-1.872v-8.45h3.484v9.62c0 .364.061.624.182.78.139.156.355.243.65.26V25a7.272 7.272 0 01-1.508.156c-.624 0-1.135-.139-1.534-.416a1.752 1.752 0 01-.676-1.196l-.078-1.092c-.607.936-1.387 1.638-2.34 2.106-.953.468-2.002.702-3.146.702zm18.334 0a6.185 6.185 0 01-2.6-.546 6.135 6.135 0 01-2.054-1.508 7.27 7.27 0 01-1.352-2.236 8.152 8.152 0 01-.468-2.782c0-.988.147-1.907.442-2.756a7.45 7.45 0 011.274-2.236 5.813 5.813 0 011.924-1.508 5.493 5.493 0 012.444-.546c1.005 0 1.907.243 2.704.728a5.243 5.243 0 011.898 1.898V6.02h3.484v14.976c0 .364.061.624.182.78.121.156.329.243.624.26V25c-.607.121-1.101.182-1.482.182-.624 0-1.135-.156-1.534-.468a1.716 1.716 0 01-.676-1.222l-.078-.858a5.007 5.007 0 01-2.054 1.976 5.815 5.815 0 01-2.678.65zm.91-2.964c.329 0 .667-.052 1.014-.156a3.883 3.883 0 001.742-1.222c.243-.277.425-.58.546-.91v-3.25a3.467 3.467 0 00-.598-1.04 3.564 3.564 0 00-.858-.832 3.912 3.912 0 00-1.014-.572 2.781 2.781 0 00-1.04-.208c-.52 0-1.005.113-1.456.338a3.404 3.404 0 00-1.118.936 4.263 4.263 0 00-.728 1.326 4.761 4.761 0 00-.26 1.56c0 .572.095 1.1.286 1.586.191.485.451.91.78 1.274s.719.65 1.17.858c.468.208.979.312 1.534.312zM134.412 25V11.376h3.484V25h-3.484zm0-15.522V6.02h3.484v3.458h-3.484zm13.699 15.782c-1.109 0-2.106-.19-2.99-.572a6.96 6.96 0 01-2.262-1.534 7.08 7.08 0 01-1.404-2.262 7.35 7.35 0 01-.494-2.678c0-.953.165-1.855.494-2.704a6.78 6.78 0 011.404-2.236 6.763 6.763 0 012.262-1.56c.884-.381 1.881-.572 2.99-.572 1.109 0 2.097.19 2.964.572a6.49 6.49 0 012.236 1.56 6.58 6.58 0 011.43 2.236c.329.85.494 1.75.494 2.704a7.35 7.35 0 01-.494 2.678 7.08 7.08 0 01-1.404 2.262c-.607.641-1.352 1.153-2.236 1.534-.884.381-1.881.572-2.99.572zm-3.562-7.046c0 .607.087 1.161.26 1.664.191.485.442.91.754 1.274.329.364.711.65 1.144.858.433.19.901.286 1.404.286.503 0 .971-.095 1.404-.286a3.39 3.39 0 001.118-.858c.329-.364.581-.797.754-1.3a4.65 4.65 0 00.286-1.664c0-.59-.095-1.135-.286-1.638a3.718 3.718 0 00-.754-1.3 3.104 3.104 0 00-1.118-.832 3.2 3.2 0 00-1.404-.312 3.2 3.2 0 00-1.404.312 3.676 3.676 0 00-1.144.858 4.35 4.35 0 00-.754 1.3 5.002 5.002 0 00-.26 1.638z" fill="#000"/></g><defs><filter id="filter0_d" x="0" y="0" width="161" height="39" filterUnits="userSpaceOnUse" color-interpolation-filters="sRGB"><feFlood flood-opacity="0" result="BackgroundImageFix"/><feColorMatrix in="SourceAlpha" values="0 0 0 0 0 0 0 0 0 0 0 0 0 0 0 0 0 0 127 0"/><feOffset dy="4"/><feGaussianBlur stdDeviation="2"/><feColorMatrix values="0 0 0 0 0 0 0 0 0 0 0 0 0 0 0 0 0 0 0.25 0"/><feBlend in2="BackgroundImageFix" result="effect1_dropShadow"/><feBlend in="SourceGraphic" in2="effect1_dropShadow" result="shape"/></filter></defs></svg>